<svg width="51" height="51" viewBox="0 0 51 51" fill="none" xmlns="http://www.w3.org/2000/svg">
<path d="M48.5887 15.4413C47.3123 12.4293 45.4911 9.72085 43.1718 7.40154C40.8525 5.08224 38.144 3.25325 35.132 1.98464C32.0111 0.661547 28.7034 0 25.2867 0C21.87 0 18.5622 0.66933 15.4413 1.98464C12.4293 3.26104 9.72085 5.08224 7.40155 7.40154C5.08224 9.72085 3.25326 12.4293 1.98464 15.4413C0.661547 18.5622 0 21.87 0 25.2867C0 28.7034 0.66933 32.0111 1.98464 35.132C3.26104 38.144 5.08224 40.8525 7.40155 43.1718C9.72085 45.4911 12.4293 47.3201 15.4413 48.5887C18.5622 49.9118 21.87 50.5733 25.2867 50.5733C28.7034 50.5733 32.0111 49.904 35.132 48.5887C38.144 47.3123 40.8525 45.4911 43.1718 43.1718C45.4911 40.8525 47.3201 38.144 48.5887 35.132C49.9118 32.0111 50.5733 28.7034 50.5733 25.2867C50.5733 21.87 49.9118 18.5544 48.5887 15.4413ZM41.0393 9.52628C43.0862 11.5732 44.6895 13.9548 45.818 16.6087C46.0203 17.0913 46.2071 17.5816 46.3783 18.0797H26.8121V3.05868C29.2793 3.22212 31.6764 3.79028 33.9568 4.75536C36.6108 5.87609 38.9924 7.47937 41.0393 9.52628ZM38.6577 25.2322C38.6577 28.8045 37.2646 32.159 34.7429 34.6884C32.5793 36.8521 29.8085 38.1829 26.8121 38.5176V21.0995H38.0117C38.432 22.4148 38.6577 23.8079 38.6577 25.2322ZM15.558 24.7574C18.6167 23.6912 21.3252 21.6598 23.4655 18.8424C23.5744 18.7023 23.6834 18.5233 23.7846 18.3443V38.5176C20.7726 38.1829 17.9863 36.8521 15.8149 34.6806C13.3944 32.2601 12.0168 29.0692 11.9079 25.6602C13.0753 25.489 14.2972 25.201 15.558 24.7574ZM9.52628 9.52628C11.5732 7.47937 13.9548 5.87609 16.6087 4.74757C18.8969 3.78249 21.3096 3.20656 23.7924 3.04312V11.9312C23.4577 12.9585 21.0216 19.6596 14.5696 21.9011C11.6744 22.9051 8.74021 23.1308 5.86053 22.5549C4.76314 22.3369 3.87589 22.0334 3.26882 21.7921C3.54901 20.0099 4.03933 18.2743 4.74757 16.6009C5.8761 13.9625 7.47938 11.5732 9.52628 9.52628ZM9.52628 41.0393C7.47938 38.9924 5.8761 36.6108 4.74757 33.9568C3.58792 31.2095 2.99642 28.2909 2.99642 25.2867C2.99642 25.1621 2.99642 25.0454 2.99642 24.9209C4.40513 25.3956 6.43647 25.8859 8.89586 25.8937C9.05931 30.0265 10.7404 33.879 13.6824 36.8209C16.4219 39.5605 19.9632 41.2105 23.7846 41.5529V47.5146C21.3018 47.3512 18.8891 46.783 16.6009 45.8102C13.9625 44.6894 11.5732 43.0862 9.52628 41.0393ZM45.8102 33.9568C44.6895 36.6108 43.0784 38.9924 41.0315 41.0393C38.9846 43.0862 36.603 44.6894 33.949 45.818C31.6687 46.783 29.2715 47.3512 26.8043 47.5146V41.5451C30.6024 41.1949 34.1358 39.5449 36.8676 36.8131C39.9652 33.7155 41.6697 29.6062 41.6697 25.2244C41.6697 23.8157 41.4907 22.4303 41.1482 21.0917H47.1722C47.429 22.4615 47.5614 23.8624 47.5614 25.2789C47.5614 28.2909 46.9776 31.2095 45.8102 33.9568Z" fill="white"/>
</svg>
