<svg width="110" height="51" viewBox="0 0 110 51" fill="none" xmlns="http://www.w3.org/2000/svg">
<path d="M83.0397 0.0290498H27.0111C24.7285 -0.0284015 22.4454 0.123284 20.1905 0.482206C14.7016 1.5874 9.7382 4.49222 6.08649 8.73662C2.43478 12.981 0.303445 18.3224 0.0300256 23.9148C-0.243393 29.5072 1.35673 35.031 4.57699 39.6114C7.79725 44.1918 12.4536 47.5669 17.8085 49.2023H17.9944L18.68 49.3998C21.5541 50.0644 24.506 50.3303 27.4526 50.1899H83.0397C86.4349 50.3534 89.8279 49.8258 93.0131 48.6391C96.1984 47.4525 99.1095 45.6315 101.57 43.2865C104.031 40.9414 105.99 38.1212 107.328 34.9968C108.667 31.8723 109.357 28.5086 109.357 25.1095C109.357 21.7104 108.667 18.3467 107.328 15.2222C105.99 12.0977 104.031 9.27753 101.57 6.93251C99.1095 4.58749 96.1984 2.76648 93.0131 1.57983C89.8279 0.393181 86.4349 -0.134404 83.0397 0.0290498V0.0290498ZM83.0397 48.0171H35.8534C40.2237 45.9976 43.9233 42.7675 46.514 38.7096C49.1046 34.6518 50.4776 29.9363 50.4703 25.122C50.4629 20.3077 49.0755 15.5964 46.4726 11.5465C43.8696 7.49659 40.1601 4.2778 35.7837 2.27159H83.0397C89.1075 2.27159 94.9268 4.682 99.2173 8.97257C103.508 13.2631 105.918 19.0824 105.918 25.1502C105.918 31.2179 103.508 37.0372 99.2173 41.3277C94.9268 45.6183 89.1075 48.0287 83.0397 48.0287V48.0171ZM48.1816 25.1037C48.1793 29.6322 46.8345 34.0585 44.3171 37.8229C41.7997 41.5873 38.2228 44.5208 34.0386 46.2528C29.8543 47.9847 25.2505 48.4373 20.809 47.5532C16.3676 46.6692 12.2879 44.4883 9.08577 41.2861C5.88359 38.0839 3.70264 34.0043 2.8186 29.5628C1.93456 25.1214 2.38711 20.5176 4.11906 16.3333C5.851 12.149 8.78458 8.57211 12.549 6.05475C16.3134 3.53738 20.7396 2.19255 25.2682 2.19025C31.3421 2.19025 37.1673 4.60312 41.4622 8.89804C45.7571 13.193 48.17 19.0181 48.17 25.0921" fill="white"/>
<path d="M32.3096 13.7864C32.4704 13.7864 32.6277 13.7387 32.7614 13.6494C32.8952 13.56 32.9995 13.433 33.061 13.2843C33.1226 13.1357 33.1387 12.9722 33.1073 12.8144C33.0759 12.6566 32.9985 12.5117 32.8847 12.398C32.771 12.2842 32.626 12.2067 32.4683 12.1754C32.3105 12.144 32.1469 12.1601 31.9983 12.2216C31.8497 12.2832 31.7227 12.3875 31.6333 12.5212C31.5439 12.655 31.4962 12.8122 31.4962 12.9731C31.4962 13.1888 31.5819 13.3957 31.7344 13.5482C31.887 13.7008 32.0939 13.7864 32.3096 13.7864" fill="white"/>
<path d="M29.3349 8.06967V12.2759C29.3046 12.4757 29.322 12.6798 29.3858 12.8715C29.4496 13.0632 29.558 13.2371 29.702 13.3788C29.846 13.5205 30.0216 13.6261 30.2143 13.6869C30.407 13.7476 30.6113 13.7618 30.8106 13.7283C30.8918 13.7356 30.9734 13.7356 31.0546 13.7283V12.6942C30.6944 12.6942 30.5898 12.578 30.5898 12.2759V8.06967H29.3349Z" fill="white"/>
<path d="M29.9159 7.23307C30.0768 7.23307 30.234 7.18537 30.3678 7.09599C30.5015 7.00662 30.6058 6.87959 30.6673 6.73097C30.7289 6.58235 30.745 6.41881 30.7136 6.26103C30.6822 6.10326 30.6048 5.95833 30.491 5.84458C30.3773 5.73083 30.2323 5.65337 30.0746 5.62198C29.9168 5.5906 29.7533 5.60671 29.6046 5.66827C29.456 5.72983 29.329 5.83408 29.2396 5.96783C29.1502 6.10159 29.1025 6.25884 29.1025 6.41971C29.1025 6.63543 29.1882 6.84231 29.3408 6.99484C29.4933 7.14737 29.7002 7.23307 29.9159 7.23307" fill="white"/>
<path d="M26.6625 11.3348C27.4062 11.4045 27.5921 11.6136 27.5921 12.0319C27.5921 12.4502 27.1622 12.7291 26.2675 12.7291C25.6995 12.7225 25.1371 12.6163 24.6059 12.4154V13.4843C25.1989 13.6939 25.8245 13.7962 26.4534 13.7864C28.2428 13.7864 28.7773 12.9498 28.7773 11.9854C28.7773 11.021 28.3822 10.4865 26.709 10.3006C25.9886 10.2309 25.7795 10.0682 25.7795 9.67318C25.7795 9.27812 26.1861 8.97602 26.8484 8.97602C27.4386 8.98197 28.0222 9.10027 28.5681 9.3246V8.16266C28.0168 7.94977 27.4271 7.85478 26.8368 7.88379C25.1985 7.88379 24.5129 8.69715 24.5129 9.66156C24.5129 10.626 24.9312 11.1488 26.616 11.2883" fill="white"/>
<path d="M25.3379 45.4609C25.3379 45.4609 37.7707 24.4298 37.852 24.2206H12.7542C12.8471 24.4298 25.3379 45.4609 25.3379 45.4609Z" fill="white"/>
<path d="M31.1824 15.5293C30.0343 15.5188 28.9018 15.7949 27.8873 16.3326C26.8729 16.8702 26.0086 17.6525 25.3727 18.6084C24.7368 17.6525 23.8726 16.8702 22.8581 16.3326C21.8436 15.7949 20.7111 15.5188 19.563 15.5293C17.7579 15.5173 16.0171 16.1991 14.7003 17.4338C13.3834 18.6685 12.591 20.3618 12.4868 22.1639H38.154C38.0674 20.374 37.2948 18.6861 35.9967 17.4507C34.6985 16.2153 32.9745 15.5272 31.1824 15.5293" fill="white"/>
<path d="M20.1672 13.2055C20.6903 13.5948 21.328 13.7992 21.9799 13.7865C23.6066 13.7865 24.2108 12.6942 24.2108 10.8584C24.2108 9.02251 23.6066 7.93029 21.9799 7.93029C21.4499 7.93067 20.9306 8.07961 20.481 8.3602V5.28107H19.2261V13.647H19.9581L20.1672 13.2055ZM20.481 9.32461C20.8329 9.11575 21.2337 9.00352 21.6429 8.99927C22.7351 8.99927 22.9094 9.83587 22.9094 10.8584C22.9094 11.8809 22.7467 12.7175 21.6429 12.7175C21.2337 12.7132 20.8329 12.601 20.481 12.3921V9.32461Z" fill="white"/>
<path d="M56.4724 29.3789H57.085V32.6511C57.085 33.0933 56.9517 33.4393 56.6851 33.689C56.4206 33.9386 56.0672 34.0635 55.625 34.0635C55.1659 34.0635 54.8083 33.946 54.5522 33.7112C54.2962 33.4763 54.1682 33.1473 54.1682 32.7241H54.7776C54.7776 32.9886 54.8495 33.1949 54.9934 33.343C55.1394 33.4911 55.3499 33.5652 55.625 33.5652C55.8768 33.5652 56.0799 33.4858 56.2344 33.3271C56.391 33.1685 56.4703 32.9463 56.4724 32.6606V29.3789ZM60.1509 34C60.117 33.9323 60.0895 33.8117 60.0684 33.6382C59.7954 33.9217 59.4696 34.0635 59.0908 34.0635C58.7523 34.0635 58.474 33.9683 58.2561 33.7778C58.0403 33.5853 57.9324 33.342 57.9324 33.0479C57.9324 32.6903 58.0678 32.4131 58.3386 32.2163C58.6116 32.0174 58.9945 31.918 59.4875 31.918H60.0588V31.6482C60.0588 31.443 59.9975 31.28 59.8748 31.1594C59.752 31.0367 59.5711 30.9753 59.332 30.9753C59.1226 30.9753 58.9469 31.0282 58.8052 31.134C58.6634 31.2398 58.5925 31.3678 58.5925 31.5181H58.0022C58.0022 31.3467 58.0625 31.1816 58.1831 31.0229C58.3058 30.8621 58.4709 30.7352 58.6782 30.6421C58.8877 30.549 59.1173 30.5024 59.3669 30.5024C59.7626 30.5024 60.0726 30.6019 60.2969 30.8008C60.5212 30.9976 60.6375 31.2694 60.646 31.6165V33.197C60.646 33.5123 60.6862 33.763 60.7666 33.9492V34H60.1509ZM59.1765 33.5525C59.3606 33.5525 59.5352 33.5049 59.7002 33.4097C59.8652 33.3145 59.9848 33.1907 60.0588 33.0383V32.3337H59.5986C58.8792 32.3337 58.5195 32.5443 58.5195 32.9653C58.5195 33.1494 58.5809 33.2933 58.7036 33.397C58.8263 33.5007 58.984 33.5525 59.1765 33.5525ZM61.8552 34V31.0198H61.3125V30.5659H61.8552V30.2136C61.8552 29.8455 61.9536 29.5609 62.1504 29.3599C62.3472 29.1589 62.6254 29.0583 62.9851 29.0583C63.1205 29.0583 63.2549 29.0763 63.3882 29.1123L63.3564 29.5884C63.257 29.5693 63.1512 29.5598 63.0391 29.5598C62.8486 29.5598 62.7016 29.6159 62.5979 29.728C62.4942 29.8381 62.4424 29.9967 62.4424 30.2041V30.5659H63.1755V31.0198H62.4424V34H61.8552ZM64.3816 30.5659L64.4006 30.9976C64.663 30.6675 65.0058 30.5024 65.429 30.5024C66.1547 30.5024 66.5208 30.9119 66.5271 31.7307V34H65.9399V31.7275C65.9378 31.48 65.8807 31.297 65.7686 31.1785C65.6585 31.06 65.4861 31.0007 65.2512 31.0007C65.0608 31.0007 64.8936 31.0515 64.7498 31.1531C64.6059 31.2546 64.4937 31.3879 64.4133 31.553V34H63.8262V30.5659H64.3816ZM68.0505 34H67.4634V29.125H68.0505V34ZM71.1133 34C71.0794 33.9323 71.0519 33.8117 71.0308 33.6382C70.7578 33.9217 70.432 34.0635 70.0532 34.0635C69.7147 34.0635 69.4364 33.9683 69.2185 33.7778C69.0027 33.5853 68.8948 33.342 68.8948 33.0479C68.8948 32.6903 69.0302 32.4131 69.301 32.2163C69.574 32.0174 69.9569 31.918 70.45 31.918H71.0212V31.6482C71.0212 31.443 70.9599 31.28 70.8372 31.1594C70.7144 31.0367 70.5335 30.9753 70.2944 30.9753C70.085 30.9753 69.9093 31.0282 69.7676 31.134C69.6258 31.2398 69.5549 31.3678 69.5549 31.5181H68.9646C68.9646 31.3467 69.0249 31.1816 69.1455 31.0229C69.2682 30.8621 69.4333 30.7352 69.6406 30.6421C69.8501 30.549 70.0797 30.5024 70.3293 30.5024C70.725 30.5024 71.035 30.6019 71.2593 30.8008C71.4836 30.9976 71.5999 31.2694 71.6084 31.6165V33.197C71.6084 33.5123 71.6486 33.763 71.729 33.9492V34H71.1133ZM70.1389 33.5525C70.323 33.5525 70.4976 33.5049 70.6626 33.4097C70.8276 33.3145 70.9472 33.1907 71.0212 33.0383V32.3337H70.561C69.8416 32.3337 69.4819 32.5443 69.4819 32.9653C69.4819 33.1494 69.5433 33.2933 69.666 33.397C69.7887 33.5007 69.9464 33.5525 70.1389 33.5525ZM74.6489 33.6604C74.4204 33.9291 74.085 34.0635 73.6428 34.0635C73.2768 34.0635 72.9975 33.9577 72.8049 33.7461C72.6145 33.5324 72.5182 33.2171 72.5161 32.8003V30.5659H73.1033V32.7844C73.1033 33.3049 73.3149 33.5652 73.738 33.5652C74.1866 33.5652 74.4849 33.398 74.6331 33.0637V30.5659H75.2202V34H74.6616L74.6489 33.6604ZM76.6707 30.5659L76.6897 30.9976C76.9521 30.6675 77.2948 30.5024 77.718 30.5024C78.4438 30.5024 78.8098 30.9119 78.8162 31.7307V34H78.229V31.7275C78.2269 31.48 78.1698 31.297 78.0576 31.1785C77.9476 31.06 77.7751 31.0007 77.5403 31.0007C77.3499 31.0007 77.1827 31.0515 77.0388 31.1531C76.8949 31.2546 76.7828 31.3879 76.7024 31.553V34H76.1152V30.5659H76.6707ZM81.8218 34C81.7879 33.9323 81.7604 33.8117 81.7393 33.6382C81.4663 33.9217 81.1405 34.0635 80.7617 34.0635C80.4232 34.0635 80.1449 33.9683 79.927 33.7778C79.7112 33.5853 79.6033 33.342 79.6033 33.0479C79.6033 32.6903 79.7387 32.4131 80.0095 32.2163C80.2825 32.0174 80.6654 31.918 81.1584 31.918H81.7297V31.6482C81.7297 31.443 81.6684 31.28 81.5457 31.1594C81.4229 31.0367 81.242 30.9753 81.0029 30.9753C80.7935 30.9753 80.6178 31.0282 80.4761 31.134C80.3343 31.2398 80.2634 31.3678 80.2634 31.5181H79.6731C79.6731 31.3467 79.7334 31.1816 79.854 31.0229C79.9767 30.8621 80.1418 30.7352 80.3491 30.6421C80.5586 30.549 80.7882 30.5024 81.0378 30.5024C81.4335 30.5024 81.7435 30.6019 81.9678 30.8008C82.1921 30.9976 82.3084 31.2694 82.3169 31.6165V33.197C82.3169 33.5123 82.3571 33.763 82.4375 33.9492V34H81.8218ZM80.8474 33.5525C81.0315 33.5525 81.2061 33.5049 81.3711 33.4097C81.5361 33.3145 81.6557 33.1907 81.7297 33.0383V32.3337H81.2695C80.5501 32.3337 80.1904 32.5443 80.1904 32.9653C80.1904 33.1494 80.2518 33.2933 80.3745 33.397C80.4972 33.5007 80.6549 33.5525 80.8474 33.5525ZM84.1958 32.4099L83.8276 32.7939V34H83.2405V29.125H83.8276V32.0735L84.1418 31.6958L85.2114 30.5659H85.9255L84.5894 32.0005L86.0811 34H85.3923L84.1958 32.4099ZM87.8933 34.0635C87.4278 34.0635 87.0491 33.9111 86.7571 33.6064C86.4651 33.2996 86.3191 32.8902 86.3191 32.3782V32.2703C86.3191 31.9296 86.3836 31.626 86.5127 31.3594C86.6439 31.0907 86.8258 30.8812 87.0586 30.731C87.2935 30.5786 87.5474 30.5024 87.8203 30.5024C88.2668 30.5024 88.6138 30.6495 88.8613 30.9436C89.1089 31.2377 89.2327 31.6588 89.2327 32.2068V32.4512H86.9062C86.9147 32.7897 87.0131 33.0637 87.2014 33.2732C87.3918 33.4806 87.6331 33.5842 87.925 33.5842C88.1324 33.5842 88.308 33.5419 88.4519 33.4573C88.5958 33.3726 88.7217 33.2605 88.8296 33.1208L89.1882 33.4001C88.9005 33.8424 88.4688 34.0635 87.8933 34.0635ZM87.8203 30.9849C87.5833 30.9849 87.3844 31.0716 87.2236 31.2451C87.0628 31.4165 86.9634 31.6577 86.9253 31.9688H88.6455V31.9243C88.6286 31.626 88.5482 31.3953 88.4043 31.2324C88.2604 31.0674 88.0658 30.9849 87.8203 30.9849ZM91.575 31.0928C91.4861 31.078 91.3898 31.0706 91.2861 31.0706C90.901 31.0706 90.6397 31.2345 90.5022 31.5625V34H89.915V30.5659H90.4863L90.4958 30.9626C90.6884 30.6558 90.9613 30.5024 91.3147 30.5024C91.429 30.5024 91.5157 30.5173 91.575 30.5469V31.0928ZM92.3145 34V31.0198H91.7717V30.5659H92.3145V30.2739C92.3145 29.891 92.4234 29.5926 92.6414 29.3789C92.8614 29.1652 93.1714 29.0583 93.5713 29.0583C93.8083 29.0583 94.1077 29.1229 94.4695 29.252L94.3711 29.7471C94.1066 29.6413 93.8548 29.5884 93.6157 29.5884C93.3639 29.5884 93.182 29.6455 93.0698 29.7598C92.9598 29.8719 92.9048 30.0412 92.9048 30.2676V30.5659H93.6062V31.0198H92.9048V34H92.3145ZM94.7615 34H94.1711V30.5659H94.7615V34Z" fill="white"/>
<path d="M56.5564 16H55.7595V9.95703H56.5564V16ZM56.5315 8.28857H57.4612L56.3489 9.50879H55.7305L56.5315 8.28857ZM59.7979 13.3064C59.1144 13.1099 58.6164 12.8692 58.3037 12.5842C57.9938 12.2965 57.8389 11.9423 57.8389 11.5217C57.8389 11.0458 58.0284 10.6529 58.4075 10.343C58.7893 10.0304 59.2846 9.87402 59.8933 9.87402C60.3083 9.87402 60.6777 9.95426 61.0015 10.1147C61.328 10.2752 61.5798 10.4966 61.7568 10.7788C61.9367 11.061 62.0266 11.3695 62.0266 11.7043H61.2256C61.2256 11.3391 61.1094 11.0527 60.877 10.8452C60.6445 10.6349 60.3167 10.5298 59.8933 10.5298C59.5004 10.5298 59.1933 10.6169 58.9719 10.7913C58.7533 10.9628 58.644 11.2021 58.644 11.5093C58.644 11.7555 58.7478 11.9644 58.9553 12.136C59.1656 12.3048 59.5212 12.4597 60.022 12.6008C60.5256 12.7419 60.9185 12.8983 61.2007 13.0698C61.4857 13.2386 61.696 13.4364 61.8315 13.6633C61.9699 13.8902 62.0391 14.1572 62.0391 14.4644C62.0391 14.9541 61.8481 15.347 61.4663 15.6431C61.0845 15.9364 60.574 16.083 59.9348 16.083C59.5198 16.083 59.1324 16.0042 58.7727 15.8464C58.413 15.686 58.1349 15.4674 57.9385 15.1907C57.7448 14.914 57.6479 14.5999 57.6479 14.2485H58.449C58.449 14.6138 58.5832 14.9029 58.8516 15.116C59.1227 15.3263 59.4838 15.4314 59.9348 15.4314C60.3554 15.4314 60.6777 15.3456 60.9019 15.1741C61.126 15.0025 61.238 14.7687 61.238 14.4727C61.238 14.1766 61.1343 13.9483 60.9268 13.7878C60.7192 13.6246 60.3429 13.4641 59.7979 13.3064ZM67.2395 10.6128H65.2971V16H64.5044V10.6128H62.5662V9.95703H67.2395V10.6128Z" fill="white"/>
<path d="M57.9414 21.8477C57.9414 22.0605 57.8848 22.25 57.7715 22.416C57.6602 22.582 57.5088 22.7119 57.3174 22.8057C57.54 22.9014 57.7158 23.041 57.8447 23.2246C57.9756 23.4082 58.041 23.6162 58.041 23.8486C58.041 24.2178 57.916 24.5117 57.666 24.7305C57.418 24.9492 57.0908 25.0586 56.6846 25.0586C56.2744 25.0586 55.9453 24.9492 55.6973 24.7305C55.4512 24.5098 55.3281 24.2158 55.3281 23.8486C55.3281 23.6182 55.3906 23.4102 55.5156 23.2246C55.6426 23.0391 55.8174 22.8984 56.04 22.8027C55.8506 22.709 55.7012 22.5791 55.5918 22.4131C55.4824 22.2471 55.4277 22.0586 55.4277 21.8477C55.4277 21.4883 55.543 21.2031 55.7734 20.9922C56.0039 20.7812 56.3076 20.6758 56.6846 20.6758C57.0596 20.6758 57.3623 20.7812 57.5928 20.9922C57.8252 21.2031 57.9414 21.4883 57.9414 21.8477ZM57.499 23.8369C57.499 23.5986 57.4229 23.4043 57.2705 23.2539C57.1201 23.1035 56.9229 23.0283 56.6787 23.0283C56.4346 23.0283 56.2383 23.1025 56.0898 23.251C55.9434 23.3994 55.8701 23.5947 55.8701 23.8369C55.8701 24.0791 55.9414 24.2695 56.084 24.4082C56.2285 24.5469 56.4287 24.6162 56.6846 24.6162C56.9385 24.6162 57.1377 24.5469 57.2822 24.4082C57.4268 24.2676 57.499 24.0771 57.499 23.8369ZM56.6846 21.1211C56.4717 21.1211 56.2988 21.1875 56.166 21.3203C56.0352 21.4512 55.9697 21.6299 55.9697 21.8564C55.9697 22.0732 56.0342 22.249 56.1631 22.3838C56.2939 22.5166 56.4678 22.583 56.6846 22.583C56.9014 22.583 57.0742 22.5166 57.2031 22.3838C57.334 22.249 57.3994 22.0732 57.3994 21.8564C57.3994 21.6396 57.332 21.4629 57.1973 21.3262C57.0625 21.1895 56.8916 21.1211 56.6846 21.1211ZM58.9727 22.8613L59.1895 20.7344H61.375V21.2354H59.6494L59.5205 22.3984C59.7295 22.2754 59.9668 22.2139 60.2324 22.2139C60.6211 22.2139 60.9297 22.3428 61.1582 22.6006C61.3867 22.8564 61.501 23.2031 61.501 23.6406C61.501 24.0801 61.3818 24.4268 61.1436 24.6807C60.9072 24.9326 60.5762 25.0586 60.1504 25.0586C59.7734 25.0586 59.4658 24.9541 59.2275 24.7451C58.9893 24.5361 58.8535 24.2471 58.8203 23.8779H59.333C59.3662 24.1221 59.4531 24.3066 59.5938 24.4316C59.7344 24.5547 59.9199 24.6162 60.1504 24.6162C60.4023 24.6162 60.5996 24.5303 60.7422 24.3584C60.8867 24.1865 60.959 23.9492 60.959 23.6465C60.959 23.3613 60.8809 23.1328 60.7246 22.9609C60.5703 22.7871 60.3643 22.7002 60.1064 22.7002C59.8701 22.7002 59.6846 22.752 59.5498 22.8555L59.4062 22.9727L58.9727 22.8613ZM62.1309 24.7158C62.1309 24.6221 62.1582 24.5439 62.2129 24.4814C62.2695 24.4189 62.3535 24.3877 62.4648 24.3877C62.5762 24.3877 62.6602 24.4189 62.7168 24.4814C62.7754 24.5439 62.8047 24.6221 62.8047 24.7158C62.8047 24.8057 62.7754 24.8809 62.7168 24.9414C62.6602 25.002 62.5762 25.0322 62.4648 25.0322C62.3535 25.0322 62.2695 25.002 62.2129 24.9414C62.1582 24.8809 62.1309 24.8057 62.1309 24.7158ZM62.1338 22.1289C62.1338 22.0352 62.1611 21.957 62.2158 21.8945C62.2725 21.832 62.3564 21.8008 62.4678 21.8008C62.5791 21.8008 62.6631 21.832 62.7197 21.8945C62.7783 21.957 62.8076 22.0352 62.8076 22.1289C62.8076 22.2188 62.7783 22.2939 62.7197 22.3545C62.6631 22.415 62.5791 22.4453 62.4678 22.4453C62.3564 22.4453 62.2725 22.415 62.2158 22.3545C62.1611 22.2939 62.1338 22.2188 62.1338 22.1289ZM66.3408 25H63.5459V24.6104L65.0225 22.9697C65.2412 22.7217 65.3916 22.5205 65.4736 22.3662C65.5576 22.21 65.5996 22.0488 65.5996 21.8828C65.5996 21.6602 65.5322 21.4775 65.3975 21.335C65.2627 21.1924 65.083 21.1211 64.8584 21.1211C64.5889 21.1211 64.3789 21.1982 64.2285 21.3525C64.0801 21.5049 64.0059 21.7178 64.0059 21.9912H63.4639C63.4639 21.5986 63.5898 21.2812 63.8418 21.0391C64.0957 20.7969 64.4346 20.6758 64.8584 20.6758C65.2549 20.6758 65.5684 20.7803 65.7988 20.9893C66.0293 21.1963 66.1445 21.4727 66.1445 21.8184C66.1445 22.2383 65.877 22.7383 65.3418 23.3184L64.1992 24.5576H66.3408V25ZM69.5898 23.1807C69.5898 23.8154 69.4814 24.2871 69.2646 24.5957C69.0479 24.9043 68.709 25.0586 68.248 25.0586C67.793 25.0586 67.4561 24.9082 67.2373 24.6074C67.0186 24.3047 66.9053 23.8535 66.8975 23.2539V22.5303C66.8975 21.9033 67.0059 21.4375 67.2227 21.1328C67.4395 20.8281 67.7793 20.6758 68.2422 20.6758C68.7012 20.6758 69.0391 20.8232 69.2559 21.1182C69.4727 21.4111 69.584 21.8643 69.5898 22.4775V23.1807ZM69.0479 22.4395C69.0479 21.9805 68.9834 21.6465 68.8545 21.4375C68.7256 21.2266 68.5215 21.1211 68.2422 21.1211C67.9648 21.1211 67.7627 21.2256 67.6357 21.4346C67.5088 21.6436 67.4434 21.9648 67.4395 22.3984V23.2656C67.4395 23.7266 67.5059 24.0674 67.6387 24.2881C67.7734 24.5068 67.9766 24.6162 68.248 24.6162C68.5156 24.6162 68.7139 24.5127 68.8428 24.3057C68.9736 24.0986 69.042 23.7725 69.0479 23.3271V22.4395ZM72.0654 25H71.5205V21.3877L70.4277 21.7891V21.2969L71.9805 20.7139H72.0654V25ZM76.4482 25H73.6533V24.6104L75.1299 22.9697C75.3486 22.7217 75.499 22.5205 75.5811 22.3662C75.665 22.21 75.707 22.0488 75.707 21.8828C75.707 21.6602 75.6396 21.4775 75.5049 21.335C75.3701 21.1924 75.1904 21.1211 74.9658 21.1211C74.6963 21.1211 74.4863 21.1982 74.3359 21.3525C74.1875 21.5049 74.1133 21.7178 74.1133 21.9912H73.5713C73.5713 21.5986 73.6973 21.2812 73.9492 21.0391C74.2031 20.7969 74.542 20.6758 74.9658 20.6758C75.3623 20.6758 75.6758 20.7803 75.9062 20.9893C76.1367 21.1963 76.252 21.4727 76.252 21.8184C76.252 22.2383 75.9844 22.7383 75.4492 23.3184L74.3066 24.5576H76.4482V25Z" fill="white"/>
</svg>
