<svg width="70" height="50" viewBox="0 0 70 50" fill="none" xmlns="http://www.w3.org/2000/svg">
<path fill-rule="evenodd" clip-rule="evenodd" d="M26.9145 41.6196V48.8831C26.1221 48.9618 25.3116 49.0041 24.495 49.0041C11.0015 49.0017 0 37.9927 0 24.5009C0 11.009 11.0015 0 24.4926 0C25.3116 0 26.1209 0.0435808 26.9121 0.121058V7.38452C26.1107 7.26927 25.3022 7.21102 24.4926 7.21019C14.9719 7.21019 7.20285 14.9845 7.20285 24.5033C7.20285 34.022 14.9719 41.7964 24.4926 41.7964C25.3022 41.7955 26.1107 41.7373 26.9121 41.622L26.9145 41.6196Z" fill="white"/>
<path fill-rule="evenodd" clip-rule="evenodd" d="M49.7001 20.7614H63.8457V28.2488H49.7001C51.4143 35.9795 58.3317 41.7939 66.5725 41.7939C67.3857 41.7932 68.1979 41.7349 69.0029 41.6196V48.8831C68.202 48.9618 67.3915 49.0041 66.5725 49.0041C53.0802 49.0041 42.0884 37.9952 42.0884 24.5033C42.0884 11.0114 53.0802 0 66.5725 0C67.3915 0 68.2008 0.0435808 69.0029 0.121058V7.38452C68.1978 7.26949 67.3857 7.21124 66.5725 7.21019C58.3329 7.21019 51.4168 13.021 49.7013 20.7687L49.7001 20.7614Z" fill="white"/>
</svg>
