<svg width="51" height="51" viewBox="0 0 51 51" fill="none" xmlns="http://www.w3.org/2000/svg">
<path d="M25.5183 0C11.4209 0 0 11.2009 0 25.005C0 38.8091 11.4209 50.01 25.5 50.01C39.5791 50.01 51 38.8091 51 25.005C51.0183 11.2009 39.5974 0 25.5183 0Z" fill="white"/>
<path d="M19.377 31.8613C20.0737 31.348 20.202 30.3764 19.6704 29.6981C19.1387 29.0198 18.1488 28.8915 17.4705 29.4047C16.7739 29.918 16.6455 30.8897 17.1772 31.5679C17.6905 32.2462 18.6804 32.3746 19.377 31.8613Z" fill="#204F9C"/>
<path d="M19.4504 18.1488C18.7905 17.5988 17.8005 17.6905 17.2322 18.3504C16.6823 19.0104 16.7739 19.982 17.4339 20.532C18.0938 21.0819 19.1021 20.9903 19.6521 20.3303C20.202 19.6704 20.1104 18.6988 19.4504 18.1488Z" fill="#204F9C"/>
<path d="M20.2387 14.4274C21.4669 13.8591 22.0169 12.4292 21.4486 11.2193C20.8803 10.0093 19.4137 9.47771 18.1671 10.0277C16.9389 10.596 16.3889 12.0259 16.9572 13.2358C17.5438 14.464 19.0104 14.9957 20.2387 14.4274Z" fill="#204F9C"/>
<path d="M18.1855 26.6916C18.0022 25.8483 17.1772 25.3167 16.3156 25.4816C15.4723 25.6466 14.9224 26.4716 15.0873 27.3149C15.2707 28.1398 16.0956 28.6898 16.9572 28.5064C17.8005 28.3415 18.3505 27.5165 18.1855 26.6916Z" fill="#204F9C"/>
<path d="M24.0517 34.0244C24.0334 34.8677 24.73 35.5826 25.5916 35.601C26.4533 35.6193 27.1865 34.941 27.2049 34.0977C27.2232 33.2361 26.5266 32.5395 25.665 32.5212C24.785 32.5028 24.0701 33.1811 24.0517 34.0244Z" fill="#204F9C"/>
<path d="M25.445 13.2358C26.8016 13.2541 27.9382 12.1909 27.9565 10.8526C27.9749 9.51437 26.8933 8.41444 25.5367 8.39611C24.1801 8.37778 23.0435 9.44104 23.0252 10.7793C22.9885 12.0992 24.0884 13.1991 25.445 13.2358Z" fill="#204F9C"/>
<path d="M25.7016 14.4091C24.8217 14.3907 24.1067 15.069 24.0884 15.9123C24.07 16.7739 24.7667 17.4705 25.6283 17.4889C26.4899 17.5072 27.2232 16.8289 27.2415 15.9856C27.2598 15.124 26.5815 14.4274 25.7016 14.4091Z" fill="#204F9C"/>
<path d="M21.0087 15.4357C20.2204 15.784 19.8721 16.7006 20.2204 17.4889C20.587 18.2589 21.522 18.6072 22.3102 18.2589C23.0985 17.9105 23.4468 16.9939 23.0985 16.224C22.7319 15.4174 21.7969 15.0691 21.0087 15.4357Z" fill="#204F9C"/>
<path d="M15.1239 22.5852C14.904 23.4102 15.4173 24.2534 16.2605 24.4551C17.1038 24.6567 17.9654 24.1618 18.1671 23.3368C18.3871 22.5119 17.8738 21.6686 17.0305 21.467C16.1872 21.2653 15.3256 21.7603 15.1239 22.5852Z" fill="#204F9C"/>
<path d="M25.5917 36.7743C24.2351 36.7559 23.1168 37.8192 23.0802 39.1575C23.0619 40.4957 24.1435 41.5956 25.5 41.614C26.8566 41.6323 27.9932 40.569 28.0115 39.2308C28.0482 37.9109 26.9666 36.8109 25.5917 36.7743Z" fill="#204F9C"/>
<path d="M12.6125 18.0388C13.6574 18.8821 15.2157 18.7354 16.0956 17.7088C16.9572 16.6822 16.8106 15.1607 15.7656 14.299C14.7207 13.4558 13.1625 13.6024 12.2825 14.629C11.4026 15.674 11.5492 17.1955 12.6125 18.0388Z" fill="#204F9C"/>
<path d="M22.3285 31.7696C21.5586 31.3846 20.6053 31.6779 20.2203 32.4479C19.817 33.1995 20.1287 34.1344 20.917 34.5194C21.6869 34.9044 22.6402 34.611 23.0252 33.8411C23.4101 33.0895 23.1168 32.1545 22.3285 31.7696Z" fill="#204F9C"/>
<path d="M20.3853 35.6377C19.1754 35.0327 17.6905 35.5277 17.0672 36.7193C16.4622 37.9109 16.9388 39.3591 18.1671 39.9641C19.3953 40.569 20.8802 40.074 21.4852 38.8825C22.0902 37.7092 21.5952 36.2426 20.3853 35.6377Z" fill="#204F9C"/>
<path d="M12.7225 31.9712C11.6409 32.7778 11.4393 34.2994 12.2825 35.3626C13.1075 36.4259 14.6657 36.6092 15.7473 35.8026C16.8289 34.996 17.0306 33.4744 16.1873 32.4112C15.344 31.3479 13.8041 31.1463 12.7225 31.9712Z" fill="#204F9C"/>
<path d="M10.8159 24.235C12.1359 24.5467 13.4741 23.7584 13.8041 22.4568C14.1341 21.1552 13.3274 19.8537 11.9892 19.5237C10.6693 19.212 9.33104 20.0003 9.00106 21.3019C8.67108 22.6035 9.4777 23.9051 10.8159 24.235Z" fill="#204F9C"/>
<path d="M13.8224 27.6998C13.5474 26.3983 12.2275 25.555 10.8893 25.83C9.55102 26.1049 8.70774 27.3882 8.98272 28.6898C9.2577 29.9914 10.5776 30.8346 11.9159 30.5597C13.2541 30.2847 14.1157 29.0014 13.8224 27.6998Z" fill="#204F9C"/>
<path d="M22.4243 28.1516V26.8596L25.0122 24.549C25.1881 24.3999 25.3137 24.226 25.4142 24.0769C25.5147 23.9278 25.565 23.7291 25.565 23.5303C25.565 23.3067 25.4896 23.1079 25.3388 22.9588C25.1881 22.8098 24.9871 22.7352 24.7358 22.7352C24.4595 22.7352 24.2585 22.8346 24.0826 23.0085C23.9067 23.1824 23.8062 23.4309 23.7811 23.7291L22.2736 23.5303C22.2987 23.2073 22.3992 22.9091 22.5499 22.6358C22.7007 22.3625 22.8766 22.1638 23.1027 21.965C23.3288 21.7911 23.5801 21.642 23.8816 21.5426C24.1831 21.4432 24.4846 21.3936 24.8112 21.3936C25.1127 21.3936 25.4142 21.4432 25.6906 21.5178C25.967 21.5923 26.2433 21.7165 26.4695 21.8905C26.6956 22.0644 26.8715 22.2632 26.9971 22.5116C27.1227 22.7601 27.1981 23.0582 27.1981 23.4061C27.1981 23.6297 27.173 23.8533 27.0976 24.052C27.0474 24.2508 26.9469 24.4247 26.8464 24.5738C26.7459 24.7477 26.6202 24.8968 26.4695 25.021C26.3187 25.1701 26.1931 25.2943 26.0423 25.4434L24.5097 26.8099H27.2232V28.1764H22.4243V28.1516Z" fill="#204F9C"/>
<path d="M32.7228 24.8516C32.7228 25.3277 32.6717 25.7537 32.5695 26.1797C32.4672 26.6057 32.3139 26.9816 32.1094 27.3073C31.9049 27.6331 31.6238 27.8837 31.2915 28.0841C30.9592 28.2846 30.5503 28.3598 30.0647 28.3598C29.579 28.3598 29.1701 28.2595 28.8378 28.0841C28.5055 27.8837 28.2244 27.6331 28.0199 27.3073C27.8154 26.9816 27.6621 26.6057 27.5599 26.1797C27.4576 25.7537 27.4065 25.3027 27.4065 24.8516C27.4065 24.3755 27.4576 23.9495 27.5599 23.5235C27.6621 23.0975 27.8154 22.7467 28.0199 22.4209C28.2244 22.0952 28.5055 21.8446 28.8378 21.6692C29.1701 21.4938 29.579 21.3936 30.0647 21.3936C30.5503 21.3936 30.9592 21.4938 31.2915 21.6692C31.6238 21.8697 31.9049 22.0952 32.1094 22.4209C32.3139 22.7467 32.4672 23.0975 32.5695 23.5235C32.6717 23.9495 32.7228 24.4006 32.7228 24.8516ZM31.087 24.8516C31.087 24.6511 31.0615 24.4256 31.0615 24.175C31.0359 23.9244 30.9848 23.6989 30.9081 23.4734C30.8314 23.2479 30.7292 23.0725 30.6014 22.9221C30.4736 22.7718 30.2947 22.6966 30.0902 22.6966C29.8857 22.6966 29.7068 22.7718 29.579 22.9221C29.4512 23.0725 29.349 23.2479 29.2723 23.4734C29.1956 23.6989 29.1445 23.9244 29.119 24.175C29.0934 24.4256 29.0934 24.6511 29.0934 24.8516C29.0934 25.0521 29.0934 25.3027 29.119 25.5532C29.1445 25.8038 29.1956 26.0293 29.2723 26.2549C29.349 26.4804 29.4512 26.6558 29.579 26.8061C29.7068 26.9565 29.8857 27.0317 30.0902 27.0317C30.2947 27.0317 30.4736 26.9565 30.6014 26.8061C30.7292 26.6558 30.8314 26.4804 30.9081 26.2549C30.9848 26.0293 31.0359 25.8038 31.0615 25.5532C31.0615 25.3027 31.087 25.0771 31.087 24.8516Z" fill="#204F9C"/>
<path d="M32.8737 28.1516V26.8596L35.4616 24.549C35.6374 24.3999 35.7631 24.226 35.8636 24.0769C35.9641 23.9278 36.0143 23.7291 36.0143 23.5303C36.0143 23.3067 35.9389 23.1079 35.7882 22.9588C35.6374 22.8098 35.4364 22.7352 35.1852 22.7352C34.9088 22.7352 34.7078 22.8346 34.5319 23.0085C34.356 23.1824 34.2555 23.4309 34.2304 23.7291L32.7229 23.5303C32.748 23.2073 32.8485 22.9091 32.9993 22.6358C33.15 22.3625 33.3259 22.1638 33.552 21.965C33.7782 21.7911 34.0294 21.642 34.3309 21.5426C34.6324 21.4432 34.9339 21.3936 35.2606 21.3936C35.5621 21.3936 35.8636 21.4432 36.1399 21.5178C36.4163 21.5923 36.6927 21.7165 36.9188 21.8905C37.1449 22.0644 37.3208 22.2632 37.4464 22.5116C37.5721 22.7601 37.6475 23.0582 37.6475 23.4061C37.6475 23.6297 37.6223 23.8533 37.5469 24.052C37.4967 24.2508 37.3962 24.4247 37.2957 24.5738C37.1952 24.7477 37.0696 24.8968 36.9188 25.021C36.7681 25.1701 36.6424 25.2943 36.4917 25.4434L34.9591 26.8099H37.6726V28.1764H32.8737V28.1516Z" fill="#204F9C"/>
<path d="M43.1722 24.8516C43.1722 25.3277 43.121 25.7537 43.0188 26.1797C42.9166 26.6057 42.7632 26.9816 42.5587 27.3073C42.3543 27.6331 42.0731 27.8837 41.7408 28.0841C41.4086 28.2846 40.9996 28.3598 40.514 28.3598C40.0284 28.3598 39.6194 28.2595 39.2872 28.0841C38.9549 27.8837 38.6737 27.6331 38.4693 27.3073C38.2648 26.9816 38.1114 26.6057 38.0092 26.1797C37.907 25.7537 37.8558 25.3027 37.8558 24.8516C37.8558 24.3755 37.907 23.9495 38.0092 23.5235C38.1114 23.0975 38.2648 22.7467 38.4693 22.4209C38.6737 22.0952 38.9549 21.8446 39.2872 21.6692C39.6194 21.4938 40.0284 21.3936 40.514 21.3936C40.9996 21.3936 41.4086 21.4938 41.7408 21.6692C42.0731 21.8697 42.3543 22.0952 42.5587 22.4209C42.7632 22.7467 42.9166 23.0975 43.0188 23.5235C43.121 23.9495 43.1722 24.4006 43.1722 24.8516ZM41.5364 24.8516C41.5364 24.6511 41.5364 24.4256 41.5108 24.175C41.4852 23.9244 41.4341 23.6989 41.3575 23.4734C41.2808 23.2479 41.1785 23.0725 41.0507 22.9221C40.9229 22.7718 40.744 22.6966 40.5396 22.6966C40.3351 22.6966 40.1562 22.7718 40.0284 22.9221C39.9006 23.0725 39.7983 23.2479 39.7217 23.4734C39.645 23.6989 39.5939 23.9244 39.5683 24.175C39.5427 24.4256 39.5427 24.6511 39.5427 24.8516C39.5427 25.0521 39.5427 25.3027 39.5683 25.5532C39.5939 25.8038 39.645 26.0293 39.7217 26.2549C39.7983 26.4804 39.9006 26.6558 40.0284 26.8061C40.1562 26.9565 40.3351 27.0317 40.5396 27.0317C40.744 27.0317 40.9229 26.9565 41.0507 26.8061C41.1785 26.6558 41.2808 26.4804 41.3575 26.2549C41.4341 26.0293 41.4852 25.8038 41.5108 25.5532C41.5364 25.3027 41.5364 25.0771 41.5364 24.8516Z" fill="#204F9C"/>
</svg>
