<svg width="40" height="40" viewBox="0 0 40 40" fill="none" xmlns="http://www.w3.org/2000/svg">
<circle cx="20" cy="20" r="19.5" stroke="#204F9C" stroke-opacity="0.2"/>
<path d="M30 20.0609C30 14.5038 25.5234 10 20 10C14.4766 10 10 14.5038 10 20.0609C10 25.0835 13.6562 29.2454 18.4375 30V22.9691H15.8984V20.0609H18.4375V17.8444C18.4375 15.3232 19.9297 13.93 22.2148 13.93C23.3086 13.93 24.4531 14.1265 24.4531 14.1265V16.6025H23.1914C21.9492 16.6025 21.5625 17.3787 21.5625 18.1745V20.0609H24.3359L23.8926 22.9691H21.5625V30C26.3438 29.2454 30 25.0835 30 20.0609Z" fill="#204F9C"/>
</svg>
