<svg width="40" height="40" viewBox="0 0 40 40" fill="none" xmlns="http://www.w3.org/2000/svg">
<path d="M13.28 16.9802H16.811V27.0006H13.28V16.9802ZM15.0465 11.999C15.451 11.9992 15.8465 12.1052 16.1828 12.3038C16.5191 12.5023 16.7812 12.7844 16.9359 13.1145C17.0906 13.4445 17.1309 13.8076 17.0519 14.1579C16.9729 14.5082 16.778 14.8299 16.4918 15.0824C16.2057 15.3349 15.8412 15.5069 15.4444 15.5765C15.0476 15.6461 14.6363 15.6103 14.2625 15.4735C13.8888 15.3368 13.5694 15.1053 13.3446 14.8083C13.1199 14.5113 13 14.1621 13 13.8049C13.0001 13.5677 13.053 13.3328 13.1559 13.1137C13.2588 12.8946 13.4095 12.6955 13.5996 12.5278C13.7896 12.3601 14.0152 12.2271 14.2635 12.1363C14.5117 12.0456 14.7778 11.999 15.0465 11.999" fill="#204F9C"/>
<path d="M18.4531 16.355H21.388V17.8104H21.4299C21.8381 16.9734 22.8371 16.0908 24.3267 16.0908C27.4267 16.0908 27.9996 18.2952 27.9996 21.1624V27.001H24.9382V21.8239C24.9382 20.5893 24.9186 19.0011 23.3473 19.0011C21.7542 19.0011 21.5111 20.3466 21.5111 21.7355V27.001H18.4531V16.355Z" fill="#204F9C"/>
<circle cx="20" cy="20" r="19.5" stroke="#204F9C" stroke-opacity="0.2"/>
</svg>
