<svg width="40" height="40" viewBox="0 0 40 40" fill="none" xmlns="http://www.w3.org/2000/svg">
<circle cx="20" cy="20" r="19.5" stroke="#204F9C" stroke-opacity="0.2"/>
<path d="M17.0317 27C23.0694 27 26.3718 21.9981 26.3718 17.6604C26.3718 17.5184 26.3718 17.3769 26.3622 17.2361C27.0047 16.7715 27.5593 16.1961 28 15.5371C27.4009 15.8025 26.7653 15.9766 26.1146 16.0535C26.7998 15.6433 27.3127 14.9981 27.5578 14.2379C26.9134 14.6203 26.2084 14.8897 25.4733 15.0347C24.9783 14.5084 24.3237 14.16 23.6108 14.0432C22.8978 13.9264 22.1663 14.0479 21.5293 14.3888C20.8923 14.7296 20.3855 15.2709 20.0872 15.9289C19.7888 16.5868 19.7157 17.3247 19.879 18.0284C18.5739 17.963 17.2971 17.6239 16.1316 17.033C14.9661 16.4422 13.9378 15.6129 13.1136 14.5989C12.6938 15.3215 12.5652 16.1769 12.7541 16.991C12.9429 17.8051 13.4349 18.5166 14.1299 18.9807C13.6075 18.9652 13.0965 18.8243 12.64 18.5698C12.64 18.5833 12.64 18.5973 12.64 18.6114C12.6402 19.3693 12.9026 20.1037 13.3826 20.6902C13.8626 21.2767 14.5307 21.6791 15.2736 21.8291C14.7903 21.9609 14.2833 21.9802 13.7914 21.8854C14.0011 22.5377 14.4095 23.108 14.9594 23.5168C15.5093 23.9255 16.1732 24.1521 16.8582 24.165C15.6958 25.0785 14.2599 25.5744 12.7814 25.5729C12.5203 25.5724 12.2593 25.5566 12 25.5255C13.5012 26.4888 15.2479 26.9998 17.0317 26.9974" fill="#204F9C"/>
</svg>
